<?xml version="1.0" standalone="no"?>
<!DOCTYPE svg PUBLIC "-//W3C//DTD SVG 20010904//EN"
 "http://www.w3.org/TR/2001/REC-SVG-20010904/DTD/svg10.dtd">
<svg version="1.0" xmlns="http://www.w3.org/2000/svg"
 width="494.000000pt" height="514.000000pt" viewBox="0 0 494.000000 514.000000"
 preserveAspectRatio="xMidYMid meet">
<metadata>
Created by potrace 1.16, written by Peter Selinger 2001-2019
</metadata>
<g transform="translate(0.000000,514.000000) scale(0.100000,-0.100000)"
fill="#000000" stroke="none">
<path d="M1332 3543 l3 -1168 112 -75 c274 -184 592 -320 889 -380 134 -27
189 -24 374 24 362 94 693 244 885 402 l45 36 0 1165 c0 1105 -1 1165 -17
1160 -10 -3 -58 -23 -108 -44 -89 -37 -92 -38 -215 -37 -105 0 -141 5 -225 28
-200 56 -309 57 -495 2 l-85 -24 -85 24 c-180 53 -337 52 -525 -2 -64 -18
-124 -27 -211 -31 -134 -6 -183 4 -281 58 -29 16 -55 29 -58 29 -3 0 -4 -525
-3 -1167z m1693 1057 c282 -68 366 -65 553 17 9 4 12 -121 12 -606 l0 -611
-535 0 -535 0 2 578 3 577 98 33 c108 36 194 52 247 45 19 -2 89 -17 155 -33z
m-1098 -254 c-95 -26 -182 -113 -208 -209 -33 -123 26 -268 136 -332 130 -77
298 -41 392 83 41 54 42 34 3 -45 -35 -71 -111 -145 -178 -176 -38 -18 -66
-22 -147 -22 -88 0 -107 3 -157 27 -115 54 -197 172 -206 297 -6 89 11 157 57
228 67 103 174 163 291 162 l65 0 -48 -13z m173 -115 c24 -49 27 -50 90 -58
27 -3 50 -8 50 -11 0 -4 -16 -23 -36 -43 l-35 -36 14 -57 c8 -31 13 -56 10
-56 -2 0 -26 10 -53 21 l-49 21 -45 -26 c-25 -14 -47 -26 -51 -26 -4 0 -3 24
0 53 7 54 7 54 -34 89 -23 19 -41 38 -41 41 0 3 24 11 54 17 53 11 55 12 72
61 10 27 21 49 26 49 4 0 17 -18 28 -39z m360 -1581 c0 -514 -3 -700 -11 -700
-36 0 -259 58 -369 95 -217 75 -418 172 -615 300 l-85 55 0 475 0 475 540 0
540 0 0 -700z m624 -461 l7 -55 -36 -17 -35 -17 0 218 c0 119 3 249 7 287 7
67 8 60 29 -145 12 -118 25 -240 28 -271z"/>
<path d="M2875 4466 c-13 -13 -27 -36 -31 -50 l-6 -25 -33 35 c-27 29 -40 35
-66 32 -54 -5 -74 -44 -74 -141 1 -98 16 -134 108 -246 56 -69 59 -75 42 -88
-11 -7 -27 -13 -36 -13 -43 0 -29 -49 21 -75 16 -8 47 -15 70 -15 22 0 40 -5
40 -11 0 -6 12 -25 27 -43 l26 -31 -58 -6 c-39 -5 -64 -13 -78 -28 l-21 -21
20 -27 c30 -41 80 -63 146 -63 50 0 60 -3 74 -25 l16 -25 20 25 c17 22 27 25
81 25 84 0 132 24 132 65 0 24 -7 33 -35 47 -19 10 -50 18 -67 18 -40 0 -40 4
-8 42 14 16 25 36 25 44 0 10 14 14 51 14 56 0 80 10 122 48 35 33 34 42 -2
42 -34 0 -81 16 -81 28 0 4 18 32 41 62 75 99 102 165 106 255 5 100 -8 129
-58 133 -24 2 -46 -4 -70 -21 l-36 -24 -30 33 c-35 40 -74 45 -97 13 l-15 -22
-27 22 c-33 26 -65 27 -95 2 -24 -19 -24 -19 -57 10 -40 35 -56 36 -87 5z m67
-72 c9 -39 26 -317 20 -328 -8 -14 -50 62 -73 132 -26 79 -24 179 6 212 24 26
38 21 47 -16z m144 -5 c17 -19 19 -37 18 -153 0 -99 -4 -140 -17 -168 -9 -21
-21 -38 -26 -38 -32 0 -61 115 -61 243 0 84 21 131 61 136 3 1 14 -9 25 -20z
m152 -24 c19 -57 9 -133 -29 -215 -56 -122 -61 -116 -57 62 3 138 5 158 22
177 28 30 49 22 64 -24z m163 25 c26 -14 25 -80 -1 -139 -39 -85 -124 -191
-155 -191 -3 0 4 19 16 42 11 22 27 78 34 122 19 119 25 134 52 156 30 23 29
23 54 10z m-611 -111 c33 -99 58 -145 103 -196 49 -55 -41 -31 -95 25 -20 20
-46 57 -58 82 -40 80 -37 211 4 197 6 -2 27 -50 46 -108z m485 -306 c19 -11
18 -12 -10 -19 -40 -10 -84 -11 -118 -1 l-28 8 16 -30 c23 -45 19 -66 -20
-100 -34 -29 -37 -30 -63 -17 -15 8 -38 26 -51 40 -24 26 -24 27 -7 62 9 20
14 39 11 42 -3 3 -36 -2 -74 -11 -78 -19 -111 -21 -111 -7 0 5 16 18 36 28 31
16 60 18 217 17 119 0 189 -4 202 -12z"/>
<path d="M2173 3037 c-39 -41 -63 -88 -63 -124 0 -37 -14 -57 -34 -50 -12 5
-14 16 -9 57 5 41 3 53 -12 64 -16 12 -16 14 0 45 16 31 16 33 -2 29 -22 -4
-82 -121 -83 -160 0 -54 71 -94 119 -67 29 16 131 134 131 151 0 6 -8 4 -18
-5 -21 -20 -38 -22 -48 -6 -3 6 10 28 31 49 20 21 33 40 27 43 -5 4 -23 -8
-39 -26z"/>
<path d="M1892 2888 c-22 -28 -42 -79 -42 -106 0 -23 -34 -74 -140 -214 -77
-102 -140 -191 -140 -199 0 -26 31 -59 54 -59 31 0 115 90 235 253 52 70 101
127 110 127 9 0 23 6 32 13 60 47 70 57 64 66 -4 7 -12 7 -24 -1 -39 -24 -148
60 -138 109 5 26 3 28 -11 11z"/>
<path d="M4350 2293 c-69 -34 -175 -135 -237 -226 -28 -39 -77 -129 -111 -198
-69 -144 -114 -193 -246 -268 -69 -39 -81 -43 -105 -34 -14 6 -75 34 -136 61
-682 310 -1452 303 -2144 -19 l-90 -41 -73 39 c-163 88 -181 106 -265 263 -71
132 -110 189 -186 268 -76 78 -139 123 -205 146 -39 14 -42 14 -42 -2 0 -14
24 -110 46 -183 3 -12 -10 -20 -61 -34 -36 -9 -65 -19 -65 -22 0 -3 35 -37 77
-76 111 -104 147 -159 257 -392 74 -156 137 -271 249 -448 82 -130 152 -239
156 -241 3 -2 42 23 86 56 213 159 450 271 713 337 191 48 261 56 487 55 275
0 456 -30 675 -111 202 -75 475 -230 603 -343 27 -24 52 -39 56 -34 14 17 288
469 309 510 12 23 39 86 61 140 69 173 137 319 171 370 19 27 67 84 109 126
41 43 73 80 70 81 -2 2 -31 9 -63 15 -33 7 -61 14 -64 16 -2 3 5 46 17 96 23
100 25 120 13 120 -4 0 -32 -12 -62 -27z m-14 -151 c-21 -80 -21 -79 22 -93
20 -6 40 -13 44 -16 4 -2 -14 -25 -39 -51 -85 -86 -155 -209 -217 -377 -20
-55 -51 -131 -69 -168 l-32 -69 -52 124 c-29 68 -53 129 -53 136 0 7 13 32 29
55 16 23 60 105 99 182 38 77 91 168 116 202 48 63 158 160 164 144 2 -5 -4
-36 -12 -69z m-3671 5 c88 -66 145 -137 225 -279 34 -62 79 -140 99 -173 l37
-60 -51 -118 c-29 -65 -56 -119 -61 -119 -5 0 -35 57 -68 128 -143 316 -163
352 -236 424 l-68 69 40 6 c22 4 41 12 44 19 2 6 -7 44 -20 84 -14 39 -22 72
-18 72 4 0 38 -24 77 -53z m1709 -433 c3 -8 -1 -31 -9 -50 -12 -30 -12 -34 1
-34 24 0 16 -37 -17 -75 -37 -41 -105 -65 -190 -65 -105 0 -138 35 -104 111
28 61 49 72 27 14 l-17 -47 25 -20 c22 -17 35 -20 100 -16 75 5 160 32 160 50
0 6 -9 8 -21 5 -30 -8 -34 17 -10 52 15 21 20 38 15 55 -3 14 -3 29 0 35 8 13
33 4 40 -15z m660 -144 c-20 -39 -15 -58 19 -84 26 -19 42 -21 189 -21 141 0
162 -2 172 -17 17 -28 -8 -47 -33 -24 -17 15 -31 16 -127 9 -183 -15 -260 9
-258 80 1 36 27 87 43 87 5 0 3 -14 -5 -30z m-1176 -74 c-10 -7 -18 -19 -18
-26 0 -8 12 -3 28 13 61 59 56 24 -9 -64 -42 -57 -56 -69 -79 -69 -16 0 -32 5
-35 11 -9 14 -55 -29 -55 -51 0 -22 -20 -40 -43 -40 -11 0 -37 -16 -58 -35
-63 -57 -77 -50 -148 78 -18 32 -30 64 -28 70 4 11 38 -38 79 -112 9 -17 24
-31 33 -31 29 0 73 39 86 75 9 24 22 38 43 45 16 6 37 17 47 26 16 15 16 18
-7 67 -26 56 -30 77 -14 77 5 0 26 -31 45 -70 19 -38 41 -70 48 -70 26 0 36
23 30 65 -4 35 -2 46 17 65 21 21 23 21 39 5 15 -15 15 -17 -1 -29z"/>
<path d="M1790 963 c0 -5 14 -32 30 -62 19 -34 30 -69 30 -93 0 -34 3 -38 25
-38 22 0 25 4 25 35 0 20 14 62 30 95 17 33 30 62 30 65 0 3 -11 5 -25 5 -18
0 -29 -9 -43 -35 l-18 -36 -17 36 c-13 26 -23 35 -42 35 -14 0 -25 -3 -25 -7z"/>
<path d="M1972 877 c-17 -51 -32 -96 -32 -100 0 -4 11 -7 24 -7 15 0 26 7 29
20 4 15 14 20 37 20 23 0 33 -5 37 -20 6 -22 53 -29 53 -8 0 7 -14 52 -31 100
-29 80 -34 88 -58 88 -24 0 -29 -7 -59 -93z"/>
<path d="M2311 948 c-22 -59 -61 -170 -61 -174 0 -2 11 -4 24 -4 16 0 27 7 31
20 5 15 15 20 40 20 24 0 34 -5 38 -20 3 -14 14 -20 31 -20 14 0 26 1 26 3 0
1 -15 45 -34 97 -30 84 -37 95 -60 98 -20 3 -28 -2 -35 -20z"/>
<path d="M2791 882 c-17 -48 -31 -93 -31 -100 0 -21 47 -14 53 8 4 15 14 20
37 20 23 0 33 -5 37 -20 3 -13 14 -20 29 -20 13 0 24 3 24 8 0 4 -14 49 -32
100 -29 85 -33 92 -58 92 -25 0 -30 -7 -59 -88z"/>
<path d="M2960 870 c0 -99 0 -101 23 -98 18 2 23 10 25 46 3 39 5 42 33 42 28
0 29 -2 29 -45 0 -41 2 -45 25 -45 l25 0 0 100 0 100 -25 0 c-22 0 -25 -4 -25
-35 0 -32 -2 -35 -29 -35 -26 0 -30 4 -33 33 -2 24 -8 33 -25 35 -23 3 -23 1
-23 -98z"/>
<path d="M3025 663 c-45 -11 -65 -43 -65 -104 0 -50 3 -60 26 -78 38 -30 98
-28 129 4 20 19 25 34 25 74 0 74 -49 119 -115 104z"/>
<path d="M790 560 c0 -93 1 -100 20 -100 18 0 20 7 20 63 l0 62 34 -60 c26
-47 39 -61 59 -63 l27 -3 0 100 c0 100 0 101 -24 101 -23 0 -25 -4 -28 -52
l-3 -53 -29 53 c-22 40 -35 52 -53 52 -23 0 -23 -2 -23 -100z"/>
<path d="M995 635 c-36 -35 -36 -115 0 -150 35 -36 96 -35 124 1 12 15 21 33
21 40 0 22 -40 16 -60 -8 -28 -35 -55 -14 -55 42 0 53 23 74 53 47 22 -20 62
-23 62 -4 0 8 -10 23 -23 35 -33 31 -90 30 -122 -3z"/>
<path d="M1160 560 l0 -100 25 0 c23 0 25 4 25 40 0 28 4 40 14 40 33 0 46
-13 46 -46 0 -30 3 -34 25 -34 22 0 25 4 25 38 0 21 -5 43 -11 49 -8 8 -8 13
0 17 17 11 13 61 -7 79 -13 12 -37 17 -80 17 l-62 0 0 -100z"/>
<path d="M1350 560 l0 -100 75 0 c73 0 75 1 75 25 0 23 -3 25 -50 25 -38 0
-50 4 -50 15 0 11 12 15 45 15 41 0 45 2 45 25 0 23 -4 25 -45 25 -33 0 -45 4
-45 15 0 11 12 15 50 15 43 0 50 3 50 20 0 18 -7 20 -75 20 l-75 0 0 -100z"/>
<path d="M1576 651 c-7 -11 -66 -177 -66 -185 0 -3 11 -6 24 -6 16 0 27 7 31
20 5 14 15 20 37 20 21 0 31 -6 35 -20 4 -14 14 -20 35 -20 25 0 29 3 23 18
-4 9 -17 46 -30 82 -13 36 -26 73 -30 83 -7 18 -50 24 -59 8z"/>
<path d="M1725 646 c-22 -16 -25 -73 -4 -87 8 -5 33 -14 57 -20 47 -13 51 -32
9 -37 -18 -2 -29 2 -33 12 -8 21 -54 21 -54 1 0 -29 38 -55 79 -55 53 0 71 8
82 36 15 41 -4 71 -56 86 -49 14 -60 31 -25 36 11 2 23 -3 26 -12 9 -23 54
-21 54 2 0 45 -90 71 -135 38z"/>
<path d="M1888 560 l3 -100 75 0 c72 0 75 1 72 23 -3 19 -10 22 -55 25 -38 2
-53 7 -53 18 0 10 12 14 45 14 41 0 45 2 45 25 0 23 -4 25 -45 25 -33 0 -45 4
-45 15 0 11 12 15 50 15 43 0 50 3 50 20 0 18 -7 20 -72 20 l-73 0 3 -100z"/>
<path d="M2130 561 c0 -94 1 -101 20 -101 18 0 20 7 21 58 l1 57 15 -57 c13
-49 19 -58 38 -58 18 0 24 8 32 43 l11 42 1 -42 c1 -39 3 -43 26 -43 l25 0 0
100 0 100 -33 0 c-33 0 -34 -1 -48 -62 l-15 -63 -14 60 c-14 57 -17 60 -47 63
l-33 3 0 -100z"/>
<path d="M2330 655 c0 -2 16 -33 35 -68 19 -35 35 -78 35 -95 0 -25 4 -32 20
-32 16 0 20 7 20 35 0 22 14 61 36 100 l35 65 -29 0 c-23 0 -32 -6 -42 -30 -7
-16 -16 -30 -20 -30 -4 0 -13 14 -20 30 -10 24 -19 30 -41 30 -16 0 -29 -2
-29 -5z"/>
<path d="M2590 560 c0 -93 1 -100 20 -100 16 0 20 7 20 34 0 50 16 52 46 6 21
-31 33 -40 55 -40 16 0 29 3 29 6 0 4 -16 29 -35 55 -19 27 -35 53 -35 57 0 5
14 21 30 37 36 34 38 45 8 45 -12 0 -40 -17 -61 -37 l-39 -38 4 38 c4 33 2 37
-19 37 -22 0 -23 -2 -23 -100z"/>
<path d="M2770 560 c0 -99 0 -100 25 -100 22 0 24 4 27 56 l3 56 30 -54 c21
-35 38 -54 53 -56 21 -3 22 -1 22 97 0 94 -1 101 -20 101 -18 0 -20 -7 -20
-57 l-1 -58 -32 57 c-27 48 -36 58 -59 58 l-28 0 0 -100z"/>
<path d="M3150 647 c0 -7 7 -33 15 -58 7 -24 19 -63 25 -86 9 -35 15 -43 34
-43 21 0 25 6 31 50 9 69 21 71 30 5 6 -49 9 -55 30 -55 21 0 27 9 44 64 11
35 23 80 26 100 7 34 6 36 -18 36 -22 0 -26 -5 -31 -45 -4 -25 -11 -45 -16
-45 -5 0 -12 20 -16 45 -6 41 -9 45 -34 45 -25 0 -27 -4 -36 -57 l-10 -58 -13
58 c-11 50 -15 57 -37 57 -13 0 -24 -6 -24 -13z"/>
<path d="M3570 560 l0 -100 76 0 c72 0 75 1 72 23 -3 19 -10 22 -50 25 -34 2
-48 7 -48 18 0 10 12 14 45 14 41 0 45 2 45 25 0 23 -4 25 -45 25 -33 0 -45 4
-45 15 0 11 12 15 44 15 35 0 45 4 49 20 5 19 0 20 -69 20 l-74 0 0 -100z"/>
<path d="M3740 560 l0 -100 54 0 c44 0 61 5 83 24 25 21 28 31 28 81 0 75 -22
95 -106 95 l-59 0 0 -100z"/>
<path d="M3950 640 c-40 -40 -39 -130 2 -162 26 -20 88 -24 106 -6 9 9 12 9
12 0 0 -7 7 -12 15 -12 12 0 15 13 15 55 l0 55 -40 0 c-33 0 -40 -3 -40 -20 0
-11 7 -20 15 -20 22 0 18 -18 -5 -25 -31 -10 -60 12 -60 46 0 17 5 39 10 50
13 23 58 26 66 4 4 -8 17 -15 30 -15 30 0 31 23 4 50 -27 27 -102 28 -130 0z"/>
<path d="M4130 560 l0 -100 75 0 c73 0 75 1 75 25 0 23 -3 25 -50 25 -38 0
-50 4 -50 15 0 11 12 15 45 15 41 0 45 2 45 25 0 23 -4 25 -45 25 -33 0 -45 4
-45 15 0 11 12 15 50 15 43 0 50 3 50 20 0 18 -7 20 -75 20 l-75 0 0 -100z"/>
</g>
</svg>
